<svg width="512" height="512" viewBox="0 0 512 512" fill="none" xmlns="http://www.w3.org/2000/svg">
    <path d="M651.837 338.138L177.164 -136.535L96.7109 -56.0821L571.384 418.591L651.837 338.138Z" fill="url(#paint0_linear_6967_240449)"/>
    <path d="M275.679 66.5681L256.009 46.8975L282.84 20.0664L302.51 39.7372L296.476 45.7711L283.724 33.0193L279.541 37.2029L292.011 49.6731L285.977 55.7071L273.507 43.2369L268.961 47.7824L281.713 60.5344L275.679 66.5681ZM304.878 95.7674L296.712 87.6016L299.89 72.7576L285.046 75.936L276.84 67.7297L299.971 63.3447L304.275 41.5018L312.441 49.6677L309.303 63.3447L322.9 60.1265L331.106 68.3328L309.344 72.637L304.878 95.7674ZM318.334 110.189C314.177 106.032 312.005 101.286 311.818 95.9489C311.657 90.5854 313.614 85.8653 317.691 81.7887C321.794 77.6859 326.5 75.7147 331.81 75.8757C337.147 76.0634 341.907 78.2491 346.09 82.4327C351.481 87.8229 352.982 94.125 350.596 101.339L341.827 98.2011C342.47 96.6458 342.631 94.9562 342.31 93.1329C342.014 91.3358 341.237 89.8072 339.976 88.5471C337.804 86.3745 335.256 85.3289 332.333 85.4091C329.463 85.4899 326.93 86.6294 324.73 88.8287C322.531 91.0274 321.378 93.5755 321.271 96.4717C321.217 99.3679 322.277 101.902 324.449 104.074C325.709 105.335 327.238 106.113 329.035 106.407C330.858 106.729 332.547 106.568 334.103 105.925L337.241 114.694C334.184 115.713 330.992 115.954 327.667 115.419C324.395 114.882 321.284 113.139 318.334 110.189ZM351.215 142.104L333.515 124.404L360.346 97.5731L367.265 104.492L346.468 125.289L357.249 136.07L351.215 142.104ZM366.132 157.987C361.949 153.803 359.817 149.607 359.736 145.396C359.656 141.185 361.332 137.364 364.765 133.931L380.735 117.961L387.774 125.001L372.045 140.73C370.41 142.366 369.565 144.176 369.511 146.16C369.511 148.144 370.423 150.049 372.247 151.872C374.043 153.669 375.921 154.554 377.878 154.527C379.89 154.501 381.713 153.669 383.349 152.033L399.078 136.305L406.077 143.304L390.147 159.234C386.688 162.693 382.853 164.383 378.643 164.303C374.459 164.249 370.289 162.144 366.132 157.987ZM393.566 185.421C388.605 180.46 386.058 175.069 385.923 169.25L394.774 167.722C394.774 172.442 396.45 176.477 399.802 179.83C400.982 181.01 402.108 181.734 403.181 182.002C404.307 182.27 405.192 182.083 405.836 181.439C406.399 180.875 406.48 180.044 406.077 178.945C405.701 177.818 405.031 176.612 404.066 175.324C403.127 174.01 402.189 172.509 401.25 170.819C400.338 169.103 399.574 167.426 398.957 165.791C398.367 164.128 398.273 162.344 398.676 160.44C399.078 158.536 400.084 156.78 401.692 155.171C404.052 152.811 407.016 151.752 410.582 151.993C414.176 152.261 417.622 154.044 420.921 157.343C425.292 161.714 427.679 166.595 428.081 171.985L419.352 173.152C418.95 169.049 417.26 165.509 414.283 162.532C412.352 160.601 410.743 160.279 409.456 161.567C408.946 162.077 408.88 162.895 409.255 164.021C409.657 165.12 410.328 166.327 411.266 167.641C412.205 168.955 413.117 170.457 414.001 172.146C414.94 173.836 415.705 175.512 416.295 177.175C416.885 178.838 416.992 180.608 416.617 182.485C416.241 184.362 415.276 186.079 413.72 187.634C410.985 190.369 407.821 191.576 404.227 191.254C400.66 190.906 397.107 188.961 393.566 185.421ZM415.387 206.276L408.468 199.358L435.3 172.526L442.218 179.445L415.387 206.276ZM436.144 227.033L427.455 218.344L444.189 181.416L452.033 189.26L439.282 215.206L465.268 202.495L473.112 210.339L436.144 227.033ZM467.933 258.823L448.263 239.152L475.094 212.321L494.765 231.992L488.731 238.025L475.979 225.274L471.795 229.457L484.266 241.928L478.231 247.962L465.761 235.491L461.216 240.037L473.967 252.789L467.933 258.823Z" fill="#0E2147"/>
    <defs>
        <linearGradient id="paint0_linear_6967_240449" x1="136.937" y1="-96.3086" x2="611.61" y2="378.364" gradientUnits="userSpaceOnUse">
            <stop stop-color="#3377FF" stop-opacity="0.25"/>
            <stop offset="0.25" stop-color="#3377FF"/>
            <stop offset="0.5" stop-color="#3377FF"/>
            <stop offset="0.75" stop-color="#3377FF"/>
            <stop offset="1" stop-color="#3377FF" stop-opacity="0.25"/>
        </linearGradient>
    </defs>
</svg>
