<svg width="112" height="49" viewBox="0 0 112 49" fill="none" xmlns="http://www.w3.org/2000/svg">
    <g clip-path="url(#clip0_846_81956)">
        <path d="M85.3286 9.43842V15.0532H83.5255V1.18799H88.3056C89.517 1.18799 90.55 1.58705 91.3952 2.38518C92.2592 3.18331 92.6912 4.15777 92.6912 5.30857C92.6912 6.4872 92.2592 7.46166 91.3952 8.25051C90.5594 9.03936 89.5264 9.42914 88.3056 9.42914H85.3286V9.43842ZM85.3286 2.89562V7.7308H88.3431C89.0568 7.7308 89.6579 7.4895 90.1274 7.01619C90.6064 6.54288 90.8505 5.96749 90.8505 5.31785C90.8505 4.67749 90.6064 4.11137 90.1274 3.63806C89.6579 3.14619 89.0662 2.9049 88.3431 2.9049H85.3286V2.89562ZM97.408 5.25277C98.7415 5.25277 99.7933 5.60543 100.563 6.31075C101.333 7.01608 101.718 7.98126 101.718 9.20629V15.0531H99.9999V13.7352H99.9248C99.1829 14.821 98.1874 15.3593 96.9478 15.3593C95.8866 15.3593 95.0039 15.0531 94.2901 14.4313C93.5764 13.8095 93.2196 13.0392 93.2196 12.1111C93.2196 11.1274 93.5952 10.3478 94.3465 9.77241C95.0978 9.18773 96.1026 8.90003 97.3516 8.90003C98.4222 8.90003 99.305 9.09493 99.9905 9.48471V9.07636C99.9905 8.45457 99.7463 7.93485 99.2486 7.49867C98.7509 7.06248 98.1686 6.84903 97.5019 6.84903C96.497 6.84903 95.6988 7.26665 95.1165 8.11118L93.5295 7.12744C94.4028 5.87456 95.6988 5.25277 97.408 5.25277ZM95.079 12.139C95.079 12.603 95.2762 12.9928 95.68 13.299C96.0744 13.6053 96.544 13.7631 97.0793 13.7631C97.84 13.7631 98.5161 13.4846 99.1077 12.9278C99.6994 12.371 99.9999 11.7213 99.9999 10.9696C99.4364 10.5334 98.657 10.3107 97.6521 10.3107C96.9196 10.3107 96.3092 10.487 95.8209 10.8304C95.3232 11.1923 95.079 11.6285 95.079 12.139ZM111.523 5.55868L105.513 19.2197H103.653L105.888 14.4402L101.925 5.55868H103.888L106.743 12.3706H106.78L109.56 5.55868H111.523Z" fill="white"/>
        <path d="M78.1664 8.30631C78.1664 7.72535 78.1138 7.16944 78.0162 6.63477H70.4583V9.69736L74.811 9.69829C74.6345 10.7173 74.0663 11.5861 73.1957 12.1651V14.1522H75.7867C77.2996 12.7684 78.1664 10.7231 78.1664 8.30631Z" fill="#4285F4"/>
        <path d="M73.1818 12.1652C72.4606 12.6459 71.5318 12.9271 70.4453 12.9271C68.3464 12.9271 66.5658 11.5293 65.9282 9.64551H63.2555V11.6947C64.5796 14.2914 67.3012 16.0732 70.4453 16.0732C72.6184 16.0732 74.444 15.367 75.7728 14.1512L73.1818 12.1652Z" fill="#34A853"/>
        <path d="M65.6845 8.12493C65.6845 7.59593 65.7737 7.08457 65.9362 6.60384V4.55469H63.2635C62.716 5.62845 62.408 6.84049 62.408 8.12493C62.408 9.40936 62.7169 10.6214 63.2635 11.6952L65.9362 9.64601C65.7698 9.15572 65.6848 8.64205 65.6845 8.12493Z" fill="#FABB05"/>
        <path d="M70.4453 3.32239C71.6314 3.32239 72.6935 3.72609 73.5321 4.51494L75.8282 2.24769C74.4337 0.964191 72.6156 0.17627 70.4453 0.17627C67.3021 0.17627 64.5796 1.95814 63.2555 4.55485L65.9282 6.60411C66.5658 4.72016 68.3464 3.32239 70.4453 3.32239Z" fill="#E94235"/>
    </g>
    <g clip-path="url(#clip1_846_81956)">
        <path d="M85.2097 32.8165C87.7939 32.8165 89.5934 34.4669 89.5934 36.8696C89.5934 39.2809 87.7569 40.9397 85.1449 40.9397H82.2837V45.1553H80.2165V32.8165H85.2097ZM82.2837 39.3322H84.6557C86.4555 39.3322 87.4798 38.4345 87.4798 36.8782C87.4798 35.322 86.4555 34.4327 84.6649 34.4327H82.2837V39.3322ZM90.1307 42.5986C90.1307 41.025 91.4321 40.0589 93.7396 39.9392L96.3974 39.7938V39.1013C96.3974 38.1008 95.6683 37.5023 94.4502 37.5023C93.2964 37.5023 92.5764 38.0153 92.4012 38.8191H90.5185C90.6292 37.1943 92.1242 35.9973 94.5239 35.9973C96.8774 35.9973 98.3817 37.1516 98.3817 38.9558V45.1552H96.4712V43.6759H96.4252C95.8624 44.6763 94.6347 45.3091 93.3611 45.3091C91.4599 45.3091 90.1307 44.2145 90.1307 42.5986ZM96.3974 41.7863V41.0765L94.0069 41.2132C92.8164 41.2902 92.1427 41.7776 92.1427 42.5472C92.1427 43.3338 92.8441 43.8469 93.9147 43.8469C95.3083 43.8469 96.3974 42.9576 96.3974 41.7863ZM100.188 48.4641V46.9677C100.335 47.0018 100.667 47.0018 100.834 47.0018C101.756 47.0018 102.255 46.6428 102.559 45.7193C102.559 45.7021 102.735 45.172 102.735 45.1635L99.2278 36.1595H101.387L103.843 43.479H103.879L106.335 36.1595H108.439L104.802 45.6251C103.972 47.8057 103.012 48.5068 101 48.5068C100.834 48.5068 100.335 48.4897 100.188 48.4641ZM74.1159 34.0207C74.6142 33.4434 74.9523 32.6682 74.8632 31.876C74.1339 31.9096 73.2438 32.3217 72.7286 32.8995C72.2658 33.3944 71.8564 34.202 71.9632 34.9609C72.7819 35.0267 73.5998 34.5818 74.1159 34.0207ZM74.854 35.1086C73.6651 35.0429 72.6542 35.7337 72.0863 35.7337C71.5183 35.7337 70.6488 35.1416 69.7084 35.1575C68.4844 35.1743 67.3488 35.8153 66.7275 36.8352C65.45 38.8751 66.3904 41.9012 67.6327 43.5627C68.2361 44.3847 68.9632 45.2898 69.9212 45.2572C70.8264 45.2243 71.1812 44.7142 72.2816 44.7142C73.381 44.7142 73.7006 45.2572 74.6589 45.2408C75.6526 45.2243 76.2737 44.4183 76.8771 43.5955C77.5691 42.6585 77.8525 41.7538 77.8703 41.7042C77.8525 41.6877 75.9542 41.013 75.9366 38.9899C75.9187 37.296 77.427 36.4903 77.498 36.4403C76.6462 35.2732 75.3154 35.1416 74.854 35.1086Z" fill="white"/>
    </g>
    <g clip-path="url(#clip2_846_81956)">
        <path d="M35.2451 3.07362C34.4972 2.78453 33.311 2.46533 31.8443 2.46533C28.1 2.46533 25.4634 4.41079 25.4472 7.19221C25.416 9.24434 27.3349 10.3841 28.7701 11.0684C30.237 11.7676 30.7357 12.224 30.7357 12.8472C30.7208 13.8043 29.5504 14.2456 28.4588 14.2456C26.9449 14.2456 26.1338 14.0181 24.9012 13.4856L24.402 13.2573L23.8713 16.4646C24.7606 16.8594 26.3991 17.2097 28.1 17.2249C32.0784 17.2249 34.6685 15.3096 34.6992 12.3456C34.7143 10.7191 33.701 9.47283 31.5166 8.45444C30.1905 7.8007 29.3783 7.35989 29.3783 6.691C29.3939 6.08292 30.0652 5.46009 31.5621 5.46009C32.7947 5.42958 33.7005 5.71827 34.3865 6.00717L34.7294 6.15887L35.2451 3.07362Z" fill="white"/>
        <path d="M21.5002 17.0119H17.7086L20.0801 2.72412H23.8715L21.5002 17.0119Z" fill="white"/>
        <path fill-rule="evenodd" clip-rule="evenodd" d="M44.9719 2.72412H42.0393C41.1348 2.72412 40.4478 2.9823 40.0575 3.90958L34.4257 17.0116H38.404C38.404 17.0116 39.059 15.2482 39.1997 14.8684H44.0678C44.1766 15.37 44.5202 17.0116 44.5202 17.0116H48.0309L44.9719 2.72412ZM40.2918 11.9502C40.604 11.1294 41.8055 7.95261 41.8055 7.95261C41.7993 7.96485 41.8481 7.83286 41.921 7.63605L41.9219 7.63365L41.9224 7.63207C42.0313 7.33809 42.1928 6.90174 42.3044 6.58474L42.5694 7.81585C42.5694 7.81585 43.2873 11.2359 43.4433 11.9502H40.2918Z" fill="white"/>
        <path d="M14.5469 2.72412L10.8337 12.467L10.428 10.491L10.4276 10.4898L9.10183 3.92513C8.8835 3.01261 8.21255 2.75422 7.3857 2.72412H1.28543L1.22302 3.01281C2.71086 3.38352 4.04159 3.91771 5.20758 4.58192L8.58701 16.9967H12.5965L18.5561 2.72412H14.5469Z" fill="white"/>
    </g>
    <g clip-path="url(#clip3_846_81956)">
        <path d="M29.0678 46.8709H19.7788V31.311H29.068L29.0678 46.8709Z" fill="#FF5F00"/>
        <path d="M20.3626 39.1306C20.3626 35.9743 21.9482 33.1626 24.4171 31.3507C22.5481 29.977 20.2365 29.2315 17.8566 29.2349C11.9939 29.2349 7.24121 33.6653 7.24121 39.1306C7.24121 44.5959 11.9938 49.0264 17.8566 49.0264C20.2366 49.0297 22.5482 48.2842 24.4174 46.9105C21.9485 45.0989 20.3626 42.2871 20.3626 39.1306Z" fill="#EB001B"/>
        <path d="M41.5973 39.1306C41.5973 44.5959 36.8448 49.0264 30.9818 49.0264C28.6016 49.0296 26.2897 48.2842 24.4203 46.9105C26.89 45.0986 28.4756 42.2871 28.4756 39.1306C28.4756 35.9741 26.89 33.1626 24.4203 31.3507C26.2897 29.9771 28.6015 29.2316 30.9817 29.2349C36.8446 29.2349 41.5973 33.6653 41.5973 39.1306Z" fill="#F79E1B"/>
    </g>
    <defs>
        <clipPath id="clip0_846_81956">
            <rect width="49.3031" height="19.7212" fill="white" transform="translate(62.2345)"/>
        </clipPath>
        <clipPath id="clip1_846_81956">
            <rect width="41.9076" height="17.2561" fill="white" transform="translate(65.8008 31.5801)"/>
        </clipPath>
        <clipPath id="clip2_846_81956">
            <rect width="48.0705" height="14.7909" fill="white" transform="translate(0.46228 2.46533)"/>
        </clipPath>
        <clipPath id="clip3_846_81956">
            <rect width="34.5122" height="19.7212" fill="white" transform="translate(7.24121 29.2349)"/>
        </clipPath>
    </defs>
</svg>